<?xml version="1.0" encoding="utf-8"?>
<!-- Generator: Adobe Illustrator 17.1.0, SVG Export Plug-In . SVG Version: 6.00 Build 0)  -->
<!DOCTYPE svg PUBLIC "-//W3C//DTD SVG 1.1//EN" "http://www.w3.org/Graphics/SVG/1.1/DTD/svg11.dtd">
<svg version="1.1" id="Calque_1" xmlns="http://www.w3.org/2000/svg" xmlns:xlink="http://www.w3.org/1999/xlink" x="0px" y="0px"
	 viewBox="0 0 50 50" enable-background="new 0 0 50 50" xml:space="preserve">
<g>
	<path fill="none" d="M21.2,27.8c6.4,0,11.6-5.2,11.6-11.6S27.5,4.7,21.2,4.7S9.6,9.9,9.6,16.2S14.8,27.8,21.2,27.8z M21.1,6.5
		c5.4,0,9.8,4.4,9.8,9.8h-2c0-4.3-3.5-7.8-7.8-7.8C21.1,8.5,21.1,6.5,21.1,6.5z"/>
	<path d="M21.2,31c8.1,0,14.8-6.6,14.8-14.8c0-8.1-6.6-14.8-14.8-14.8S6.4,8.1,6.4,16.2S13,31,21.2,31z M21.2,4.7
		c6.4,0,11.6,5.2,11.6,11.6s-5.2,11.6-11.6,11.6S9.6,22.6,9.6,16.2S14.8,4.7,21.2,4.7z"/>
	<path d="M28.9,16.2h2c0-5.4-4.4-9.8-9.8-9.8v2C25.4,8.5,28.9,12,28.9,16.2z"/>
	<path d="M32.3,27.2c-0.8,0.8-0.8,2,0,2.8l8.3,8.3c0.4,0.4,0.9,0.6,1.4,0.6s1-0.2,1.4-0.6c0.8-0.8,0.8-2,0-2.8l-8.3-8.3
		C34.3,26.4,33,26.4,32.3,27.2z"/>
</g>
</svg>
